# xmcd
#
# Track frame offsets:
# 150
# 474
# 19375
# 36548
# 50578
# 63290
# 78595
# 92002
# 106697
# 118645
# 134115
# 169463
#
# Disc length: 2459 seconds
#
# Revision: 0
# Processed by: cddbd v1.4PL0 Copyright (c) Steve Scherf et al.
# Submitted via: Audion 2.6.0 (http://www.panic.com/audion/)
#
DISCID=a309990c
DTITLE=Blues Brothers - Blues Brothers soundtrack
DYEAR=1900
DGENRE=
TTITLE0=blank
TTITLE1=She Caught the Katy
TTITLE2=Peter Gunn Theme
TTITLE3=Gimme Some Lovin'
TTITLE4=Shake a Tail Feather - Ray Charles
TTITLE5=Everybody Needs Somebody to Love
TTITLE6=Old Landmark - James Brown
TTITLE7=Think - Aretha Franklin
TTITLE8=Rawhide Theme
TTITLE9=Minnie the Moocher - Cab Calloway
TTITLE10=Sweet Home Chicago
TTITLE11=Jailhouse Rock
EXTD=
EXTT0=
EXTT1=
EXTT2=
EXTT3=
EXTT4=
EXTT5=
EXTT6=
EXTT7=
EXTT8=
EXTT9=
EXTT10=
EXTT11=
PLAYORDER=
